<svg width="300" height="180" xmlns="http://www.w3.org/2000/svg">
  <g>
    <rect height="20" width="300" y="0" x="0" fill="#262262" />
    <rect height="20" width="300" y="40" x="0" fill="#262262" />
    <rect height="20" width="300" y="80" x="0" fill="#262262" />
    <rect height="20" width="300" y="120" x="0" fill="#262262" />
    <rect height="20" width="300" y="160" x="0" fill="#262262" />
    <ellipse ry="83" rx="83" cy="90" cx="150" fill="#ffffff" />

    <path fill="#000000" d="m137.67349,99.69501l0,-16.84291l-7.674,11.16522l-0.11099,0l-7.67401,-11.16522l0,16.84291l-1.38499,0l0,-19.3918l1.35699,0l7.785,11.46989l7.785,-11.46989l1.358,0l0,19.3918l-1.44101,0l0,0z" />
    <path fill="#000000" d="m146.95097,99.69499l0,-19.39178l1.44067,0l0,18.06381l11.38686,0l0,1.32799l-12.82753,0l0,-0.00002z" />
    <path fill="#000000" d="m172.73849,99.972c-3.103,0 -5.485,-1.02499 -7.813,-3.10289l0.944,-1.08052c2.134,1.96701 4.101,2.88132 6.95401,2.88132c2.90901,0 4.90199,-1.63461 4.90199,-3.84921l0,-0.0573c0,-2.04829 -1.078,-3.23959 -5.48399,-4.12621c-4.65601,-0.94199 -6.53801,-2.52119 -6.53801,-5.4579l0,-0.0536c0,-2.88318 2.632,-5.09769 6.23201,-5.09769c2.828,0 4.68199,0.7757 6.651,2.35489l-0.914,1.13409c-1.82901,-1.57738 -3.657,-2.18869 -5.791,-2.18869c-2.853,0 -4.735,1.6364 -4.735,3.6552l0,0.0573c0,2.04831 1.05099,3.29512 5.651,4.2388c4.489,0.91251 6.373,2.51941 6.373,5.34721l0,0.05359c-0.002,3.13071 -2.69,5.29161 -6.43201,5.29161l0,0l0,0z" />
  </g>
</svg>